<svg width="16" height="14" viewBox="0 0 16 14" fill="none" xmlns="http://www.w3.org/2000/svg">
<path d="M3 1.5C3 1.10218 3.15804 0.720644 3.43934 0.43934C3.72064 0.158035 4.10218 0 4.5 0H11.5C11.8978 0 12.2794 0.158035 12.5607 0.43934C12.842 0.720644 13 1.10218 13 1.5V2H13.5C14.163 2 14.7989 2.26339 15.2678 2.73223C15.7366 3.20107 16 3.83696 16 4.5V9.5C16 9.89782 15.842 10.2794 15.5607 10.5607C15.2794 10.842 14.8978 11 14.5 11H13V12.5C13 12.8978 12.842 13.2794 12.5607 13.5607C12.2794 13.842 11.8978 14 11.5 14H4.5C4.10218 14 3.72064 13.842 3.43934 13.5607C3.15804 13.2794 3 12.8978 3 12.5V11H1.5C1.10218 11 0.720644 10.842 0.43934 10.5607C0.158035 10.2794 0 9.89782 0 9.5V4.5C0 3.83696 0.263392 3.20107 0.732233 2.73223C1.20107 2.26339 1.83696 2 2.5 2H3V1.5ZM4 2H12V1.5C12 1.36739 11.9473 1.24021 11.8536 1.14645C11.7598 1.05268 11.6326 1 11.5 1H4.5C4.36739 1 4.24021 1.05268 4.14645 1.14645C4.05268 1.24021 4 1.36739 4 1.5V2ZM3 10V8.5C3 8.10218 3.15804 7.72064 3.43934 7.43934C3.72064 7.15804 4.10218 7 4.5 7H11.5C11.8978 7 12.2794 7.15804 12.5607 7.43934C12.842 7.72064 13 8.10218 13 8.5V10H14.5C14.6326 10 14.7598 9.94732 14.8536 9.85355C14.9473 9.75979 15 9.63261 15 9.5V4.5C15 4.10218 14.842 3.72064 14.5607 3.43934C14.2794 3.15804 13.8978 3 13.5 3H2.5C2.10218 3 1.72064 3.15804 1.43934 3.43934C1.15804 3.72064 1 4.10218 1 4.5V9.5C1 9.63261 1.05268 9.75979 1.14645 9.85355C1.24021 9.94732 1.36739 10 1.5 10H3ZM4.5 8C4.36739 8 4.24021 8.05268 4.14645 8.14645C4.05268 8.24021 4 8.36739 4 8.5V12.5C4 12.6326 4.05268 12.7598 4.14645 12.8536C4.24021 12.9473 4.36739 13 4.5 13H11.5C11.6326 13 11.7598 12.9473 11.8536 12.8536C11.9473 12.7598 12 12.6326 12 12.5V8.5C12 8.36739 11.9473 8.24021 11.8536 8.14645C11.7598 8.05268 11.6326 8 11.5 8H4.5Z" fill="black"/>
</svg>
