<svg width="43" height="32" viewBox="0 0 43 32" fill="none" xmlns="http://www.w3.org/2000/svg">
<mask id="mask0_50_27" style="mask-type:luminance" maskUnits="userSpaceOnUse" x="0" y="0" width="43" height="32">
<path d="M9.06405 2.414C14.607 2.138 18.918 2 21.998 2C25.078 2 29.391 2.138 34.937 2.415C36.3883 2.48743 37.764 3.08407 38.8086 4.09412C39.8532 5.10417 40.4958 6.45899 40.617 7.907C40.871 10.941 40.998 13.613 40.998 15.924C40.998 18.263 40.868 20.972 40.608 24.052C40.4873 25.4834 39.8571 26.824 38.8319 27.8301C37.8066 28.8363 36.4544 29.4412 35.021 29.535C30.28 29.845 25.939 30 21.998 30C18.058 30 13.718 29.845 8.98005 29.535C7.54712 29.4413 6.19531 28.8368 5.17014 27.8312C4.14498 26.8257 3.51444 25.4859 3.39305 24.055C3.13005 20.952 2.99805 18.241 2.99805 15.924C2.99805 13.634 3.12705 10.961 3.38305 7.904C3.50473 6.45635 4.14751 5.102 5.19209 4.09237C6.23667 3.08273 7.61209 2.48638 9.06305 2.414H9.06405Z" fill="white" stroke="white" stroke-width="4" stroke-linejoin="round"/>
<path d="M19 11.6101V20.4061C18.9999 20.561 19.0419 20.7131 19.1213 20.846C19.2008 20.979 19.3148 21.088 19.4512 21.1613C19.5876 21.2347 19.7414 21.2697 19.8962 21.2626C20.0509 21.2555 20.2008 21.2066 20.33 21.1211L26.927 16.7611C27.0449 16.6834 27.1418 16.5777 27.209 16.4535C27.2762 16.3293 27.3117 16.1905 27.3123 16.0492C27.3129 15.908 27.2786 15.7688 27.2124 15.6441C27.1462 15.5193 27.0502 15.4128 26.933 15.3341L20.335 10.8981C20.2061 10.8115 20.056 10.7615 19.9008 10.7536C19.7457 10.7456 19.5913 10.78 19.4541 10.853C19.317 10.9261 19.2023 11.035 19.1223 11.1682C19.0423 11.3014 19.0001 11.4538 19 11.6091V11.6101Z" fill="black" stroke="black" stroke-width="3.429" stroke-linejoin="round"/>
</mask>
<g mask="url(#mask0_50_27)">
<path d="M-2 -8H46V40H-2V-8Z" fill="white"/>
</g>
</svg>
